<mxfile host="65bd71144e">
    <diagram name="Page-1" id="e7e014a7-5840-1c2e-5031-d8a46d1fe8dd">
        <mxGraphModel dx="591" dy="375" grid="1" gridSize="10" guides="1" tooltips="1" connect="1" arrows="1" fold="1" page="1" pageScale="1" pageWidth="1169" pageHeight="826" background="none" math="0" shadow="0">
            <root>
                <mxCell id="0"/>
                <mxCell id="1" parent="0"/>
                <mxCell id="3" value="Banking System" style="swimlane;whiteSpace=wrap" parent="1" vertex="1">
                    <mxGeometry x="430" y="90" width="280" height="1480" as="geometry"/>
                </mxCell>
                <mxCell id="vLWBK4wdmC8ce3NOExXX-42" value="login" style="ellipse;whiteSpace=wrap;html=1;" parent="3" vertex="1">
                    <mxGeometry x="80" y="70" width="120" height="60" as="geometry"/>
                </mxCell>
                <mxCell id="vLWBK4wdmC8ce3NOExXX-44" value="view account info" style="ellipse;whiteSpace=wrap;html=1;" parent="3" vertex="1">
                    <mxGeometry x="80" y="146" width="120" height="64" as="geometry"/>
                </mxCell>
                <mxCell id="vLWBK4wdmC8ce3NOExXX-45" value="transfer money" style="ellipse;whiteSpace=wrap;html=1;" parent="3" vertex="1">
                    <mxGeometry x="80" y="224" width="120" height="66" as="geometry"/>
                </mxCell>
                <mxCell id="vLWBK4wdmC8ce3NOExXX-46" value="pay bills" style="ellipse;whiteSpace=wrap;html=1;" parent="3" vertex="1">
                    <mxGeometry x="82" y="308" width="120" height="62" as="geometry"/>
                </mxCell>
                <mxCell id="vLWBK4wdmC8ce3NOExXX-47" value="view transection history" style="ellipse;whiteSpace=wrap;html=1;" parent="3" vertex="1">
                    <mxGeometry x="80" y="393" width="120" height="80" as="geometry"/>
                </mxCell>
                <mxCell id="vLWBK4wdmC8ce3NOExXX-48" value="change passwaord" style="ellipse;whiteSpace=wrap;html=1;" parent="3" vertex="1">
                    <mxGeometry x="80" y="500" width="120" height="80" as="geometry"/>
                </mxCell>
                <mxCell id="vLWBK4wdmC8ce3NOExXX-49" value="approve account creeation" style="ellipse;whiteSpace=wrap;html=1;" parent="3" vertex="1">
                    <mxGeometry x="80" y="669" width="120" height="80" as="geometry"/>
                </mxCell>
                <mxCell id="vLWBK4wdmC8ce3NOExXX-50" value="view customer info" style="ellipse;whiteSpace=wrap;html=1;" parent="3" vertex="1">
                    <mxGeometry x="80" y="771" width="120" height="69" as="geometry"/>
                </mxCell>
                <mxCell id="vLWBK4wdmC8ce3NOExXX-56" value="deposit money" style="ellipse;whiteSpace=wrap;html=1;" parent="3" vertex="1">
                    <mxGeometry x="80" y="860" width="120" height="70" as="geometry"/>
                </mxCell>
                <mxCell id="vLWBK4wdmC8ce3NOExXX-57" value="withdraw money" style="ellipse;whiteSpace=wrap;html=1;" parent="3" vertex="1">
                    <mxGeometry x="87" y="948" width="120" height="80" as="geometry"/>
                </mxCell>
                <mxCell id="vLWBK4wdmC8ce3NOExXX-62" value="" style="endArrow=none;html=1;rounded=0;entryX=0;entryY=0.588;entryDx=0;entryDy=0;entryPerimeter=0;exitX=0;exitY=0.5;exitDx=0;exitDy=0;" parent="3" source="vLWBK4wdmC8ce3NOExXX-44" target="vLWBK4wdmC8ce3NOExXX-42" edge="1">
                    <mxGeometry width="50" height="50" relative="1" as="geometry">
                        <mxPoint x="70" y="290" as="sourcePoint"/>
                        <mxPoint x="120" y="240" as="targetPoint"/>
                        <Array as="points">
                            <mxPoint x="-90" y="190"/>
                        </Array>
                    </mxGeometry>
                </mxCell>
                <mxCell id="6" value="add and edit bank employee infp" style="ellipse;whiteSpace=wrap;html=1;" parent="3" vertex="1">
                    <mxGeometry x="95" y="1220" width="120" height="80" as="geometry"/>
                </mxCell>
                <mxCell id="7" value="view system logd" style="ellipse;whiteSpace=wrap;html=1;" parent="3" vertex="1">
                    <mxGeometry x="95" y="1340" width="120" height="80" as="geometry"/>
                </mxCell>
                <mxCell id="33" value="" style="endArrow=none;html=1;rounded=0;entryX=0;entryY=0.5;entryDx=0;entryDy=0;exitX=1;exitY=0.3333333333333333;exitDx=0;exitDy=0;exitPerimeter=0;" edge="1" parent="3" source="vLWBK4wdmC8ce3NOExXX-53">
                    <mxGeometry width="50" height="50" relative="1" as="geometry">
                        <mxPoint x="-88" y="764.5" as="sourcePoint"/>
                        <mxPoint x="82" y="720" as="targetPoint"/>
                    </mxGeometry>
                </mxCell>
                <mxCell id="34" value="add and edit customer info" style="ellipse;whiteSpace=wrap;html=1;" vertex="1" parent="3">
                    <mxGeometry x="95" y="1090" width="120" height="80" as="geometry"/>
                </mxCell>
                <mxCell id="vLWBK4wdmC8ce3NOExXX-53" value="Employe" style="shape=umlActor;verticalLabelPosition=bottom;verticalAlign=top;html=1;outlineConnect=0;" parent="1" vertex="1">
                    <mxGeometry x="310" y="907" width="30" height="60" as="geometry"/>
                </mxCell>
                <mxCell id="vLWBK4wdmC8ce3NOExXX-54" value="Syustem Admin" style="shape=umlActor;verticalLabelPosition=bottom;verticalAlign=top;html=1;outlineConnect=0;" parent="1" vertex="1">
                    <mxGeometry x="310" y="1300" width="30" height="60" as="geometry"/>
                </mxCell>
                <mxCell id="vLWBK4wdmC8ce3NOExXX-72" value="" style="endArrow=none;html=1;rounded=0;entryX=0;entryY=0.5;entryDx=0;entryDy=0;" parent="1" target="vLWBK4wdmC8ce3NOExXX-47" edge="1">
                    <mxGeometry width="50" height="50" relative="1" as="geometry">
                        <mxPoint x="340" y="280" as="sourcePoint"/>
                        <mxPoint x="430" y="620" as="targetPoint"/>
                    </mxGeometry>
                </mxCell>
                <mxCell id="vLWBK4wdmC8ce3NOExXX-73" value="" style="endArrow=none;html=1;rounded=0;entryX=0.075;entryY=0.138;entryDx=0;entryDy=0;entryPerimeter=0;" parent="1" target="vLWBK4wdmC8ce3NOExXX-48" edge="1">
                    <mxGeometry width="50" height="50" relative="1" as="geometry">
                        <mxPoint x="340" y="280" as="sourcePoint"/>
                        <mxPoint x="430" y="700" as="targetPoint"/>
                    </mxGeometry>
                </mxCell>
                <mxCell id="vLWBK4wdmC8ce3NOExXX-74" value="" style="endArrow=none;html=1;rounded=0;entryX=0;entryY=0;entryDx=0;entryDy=0;" parent="1" target="vLWBK4wdmC8ce3NOExXX-45" edge="1">
                    <mxGeometry width="50" height="50" relative="1" as="geometry">
                        <mxPoint x="340" y="280" as="sourcePoint"/>
                        <mxPoint x="420" y="310" as="targetPoint"/>
                    </mxGeometry>
                </mxCell>
                <mxCell id="vLWBK4wdmC8ce3NOExXX-76" value="" style="endArrow=none;html=1;rounded=0;entryX=0;entryY=0.5;entryDx=0;entryDy=0;" parent="1" target="vLWBK4wdmC8ce3NOExXX-50" edge="1">
                    <mxGeometry width="50" height="50" relative="1" as="geometry">
                        <mxPoint x="340" y="940" as="sourcePoint"/>
                        <mxPoint x="450" y="940" as="targetPoint"/>
                    </mxGeometry>
                </mxCell>
                <mxCell id="vLWBK4wdmC8ce3NOExXX-68" value="" style="endArrow=none;html=1;rounded=0;entryX=0.069;entryY=0.224;entryDx=0;entryDy=0;entryPerimeter=0;" parent="1" target="vLWBK4wdmC8ce3NOExXX-46" edge="1">
                    <mxGeometry width="50" height="50" relative="1" as="geometry">
                        <mxPoint x="340" y="280" as="sourcePoint"/>
                        <mxPoint x="510" y="410" as="targetPoint"/>
                    </mxGeometry>
                </mxCell>
                <mxCell id="vLWBK4wdmC8ce3NOExXX-75" value="" style="endArrow=none;html=1;rounded=0;entryX=-0.017;entryY=0.338;entryDx=0;entryDy=0;entryPerimeter=0;" parent="1" target="vLWBK4wdmC8ce3NOExXX-57" edge="1" source="vLWBK4wdmC8ce3NOExXX-53">
                    <mxGeometry width="50" height="50" relative="1" as="geometry">
                        <mxPoint x="350" y="950" as="sourcePoint"/>
                        <mxPoint x="470" y="1230" as="targetPoint"/>
                    </mxGeometry>
                </mxCell>
                <mxCell id="21" value="Customer" style="shape=umlActor;verticalLabelPosition=bottom;verticalAlign=top;html=1;outlineConnect=0;" parent="1" vertex="1">
                    <mxGeometry x="280" y="250" width="30" height="60" as="geometry"/>
                </mxCell>
                <mxCell id="vLWBK4wdmC8ce3NOExXX-78" value="" style="endArrow=none;html=1;rounded=0;entryX=-0.01;entryY=0.603;entryDx=0;entryDy=0;entryPerimeter=0;" parent="1" edge="1" target="vLWBK4wdmC8ce3NOExXX-56" source="vLWBK4wdmC8ce3NOExXX-53">
                    <mxGeometry width="50" height="50" relative="1" as="geometry">
                        <mxPoint x="370" y="1020" as="sourcePoint"/>
                        <mxPoint x="520" y="1270" as="targetPoint"/>
                    </mxGeometry>
                </mxCell>
                <mxCell id="35" style="edgeStyle=none;html=1;endArrow=none;endFill=0;" edge="1" parent="1" source="34">
                    <mxGeometry relative="1" as="geometry">
                        <mxPoint x="350" y="1330" as="targetPoint"/>
                    </mxGeometry>
                </mxCell>
                <mxCell id="36" style="edgeStyle=none;html=1;endArrow=none;endFill=0;" edge="1" parent="1" source="6" target="vLWBK4wdmC8ce3NOExXX-54">
                    <mxGeometry relative="1" as="geometry"/>
                </mxCell>
                <mxCell id="37" style="edgeStyle=none;html=1;endArrow=none;endFill=0;" edge="1" parent="1" source="7">
                    <mxGeometry relative="1" as="geometry">
                        <mxPoint x="340" y="1330" as="targetPoint"/>
                    </mxGeometry>
                </mxCell>
            </root>
        </mxGraphModel>
    </diagram>
</mxfile>